<svg height="24" viewBox="0 0 24 24" width="24" xmlns="http://www.w3.org/2000/svg"><path d="m8 0c-4.4186213 0-8 3.59303807-8 8.02451112 0 .259898.94117647.259898.94117647 0 0-3.91236118 3.16068624-7.0833372 7.05882353-7.0833372 3.8981373 0 7.0588235 3.17097602 7.0588235 7.0833372 0 3.61009518-2.7052925 6.63164078-6.24944797 7.03732448-.2582126.0295564-.44357498.2628388-.41401845.5210507.02955652.2582119.26283949.4435738.5210521.4140173 4.01870782-.4600035 7.08359082-3.8831764 7.08359082-7.97239248 0-4.43147305-3.5813787-8.02451112-8-8.02451112zm.18508428 2.66666667c.23641832 0 .43304694.16379112.47382345.37978611l.00775894.08322723v5.01154878l-3.22136599 2.42685841-.07292395.0454611c-.17673766.0895672-.39434982.0641798-.54367816-.0634274l-.05949897-.06091-.04728431-.0701122c-.09315926-.1699229-.06675369-.3791443.06597119-.52271477l.06335282-.05720479 2.8522626-2.14974369v-4.55975544l.00775894-.08322723c.0407765-.21599499.23740513-.37978611.47382344-.37978611z" fill="#56707a" transform="translate(4 4)"/></svg>