<svg height="24" viewBox="0 0 24 24" width="24" xmlns="http://www.w3.org/2000/svg"><path d="m10.3700194.4481736.1415696.1116557 6.6315789 5.64667037c.4980682.42409613.8029883 1.03655395.8503496 1.69291598l.0064825.17998783v4.54367022c0 .2616086-.2120756.4736842-.4736842.4736842-.232541 0-.4259448-.1675659-.4660525-.3885389l-.0076317-.0851453v-4.54367022c0-.39764193-.1524132-.77574744-.4185775-1.05265652l-.1050682-.09893783-6.63157897-5.64667037c-.4878067-.41535864-1.17323693-.44304922-1.68739344-.08307173l-.10742042.08307173-6.63157895 5.64667037c-.29399802.25033403-.47907764.612072-.51657684 1.00355389l-.00706886.14804046v7.48786342c0 .7780494.57071282 1.4113585 1.29224356 1.4793248l.12880907.0060399h13.26315785c.7812224 0 1.4210527-.6615477 1.4210527-1.4853647 0-.2616086.2120756-.4736842.4736842-.4736842s.4736842.2120756.4736842.4736842c0 1.2864851-.9739237 2.3449256-2.2122982 2.4275425l-.1561229.0051906h-13.26315785c-1.25918033 0-2.28347127-1.0069811-2.36339985-2.2731643l-.0050212-.1595688v-7.48786342c0-.66315075.26341444-1.29552979.72583248-1.75267964l.1309996-.12022417 6.63157894-5.64667037c.83049644-.7071528 2.01395773-.74437137 2.88160838-.1116557zm.5940475 4.5518264c.2255292 0 .4480641.02479355.6645721.0734012l.2143865.0565094.7803438.2367846-1.69799 1.7663048.887.862 1.7055699-1.77418254.2812142.73690583c.1318102.34540126.2002159.71373479.2002159 1.09076462 0 1.68305488-1.3583738 3.04848789-3.0353124 3.04848789-.1418438 0-.2824649-.0098084-.4211009-.0291611l-.2063698-.0361542-.0872169-.0216605-4.490716 4.5147263c-.55424274.557123-1.41439477.6247271-2.04349051.2007887l-.1225793-.0913421-.11546319-.1044536c-.59797058-.6010722-.633139-1.5433533-.10968052-2.1803877l.10469385-.115709 4.52423569-4.5486226-.03035119-.15783791-.01625611-.11843495-.01165369-.11932653-.00936385-.2409127c0-1.68305489 1.35837384-3.04848791 3.03531242-3.04848791zm-.3706876 1.035-.0753387.01435245c-.9091873.20462342-1.58928612 1.02156203-1.58928612 1.99913546 0 .16371404.01898706.32449086.05610248.48016029l.04312641.15388658.09372547.29015966-4.940632 4.96620376c-.21534748.2164665-.23927714.5514298-.07243192.7935852l.07150827.0860452.0859751.0716132c.21459786.148459.49923077.1456069.70881827-.006619l.0747942-.0640829 4.92584975-4.95104272.29975479.10846971c.2187135.07914401.4505722.12010891.6887216.12010891.9675992 0 1.7781955-.67985093 1.9845163-1.59161565l.028715-.15403132.0150811-.14132883-1.1546772 1.20290565-2.32242965-2.25438983z" fill="#56707a" transform="translate(3 3)"/></svg>