<svg height="24" viewBox="0 0 24 24" width="24" xmlns="http://www.w3.org/2000/svg"><path d="m12.4431676 0c-2.517167 0-4.55670086 2.0499288-4.55670086 4.57737676l.00900234.28981425c.01197974.19230204.03586904.38265005.07138725.57020948l.05601218.25459951-7.35466199 7.3927291c-.89215631.8967034-.89215631 2.3457469.00730808 3.2497607l.13129795.1209541c.89867825.7658738 2.24860806.722054 3.09460439-.1282542l7.30745156-7.3441897.1901831.05091582c.3393156.07994578.6890878.12083769 1.044116.12083769 2.517167 0 4.5567009-2.04992879 4.5567009-4.57737675 0-.56670968-.1027898-1.11995303-.3008329-1.63868648l-.281298-.73680221-2.6098691 2.71511193-1.85-1.796 2.5855963-2.68898625-.7803892-.23690085c-.4246374-.12890614-.8681346-.1951129-1.319908-.1951129zm0 1 .1617009.005-2.0568149 2.14105419 3.285625 3.1890626 2.1341899-2.22311679.0224071.2003252c.0063794.08779182.0095929.17618285.0095929.26505156 0 1.97629804-1.5929598 3.57737675-3.5567009 3.57737675-.4160741 0-.8216734-.07166647-1.2043051-.21013687l-.2997503-.10847645-7.7465895 7.78573471c-.46552186.4678945-1.20278374.5008826-1.7110702.0932126l-.10523132-.0941047c-.50313826-.5057049-.50313826-1.3243522.00089754-1.8309569l7.77620512-7.81629631-.09369131-.29014223c-.11427258-.35387806-.17316579-.72572555-.17316579-1.1062106 0-1.97629805 1.59295986-3.57737676 3.55670086-3.57737676z" fill="#56707a" transform="translate(3.500131 3.5)"/></svg>